# AST/ASF file generated using VICON BodyLanguage
# -----------------------------------------------
:version 1.10
:name VICON
:units
  mass 1.0
  length 0.45
  angle deg
:documentation
   .ast/.asf automatically generated from VICON data using
   VICON BodyBuilder and BodyLanguage model FoxedUp or BRILLIANT.MOD
:root
   order TX TY TZ RX RY RZ
   axis XYZ
   position 0 0 0  
   orientation 0 0 0 
:bonedata
  begin
     id 1 
     name lhipjoint
     direction 0.734343 -0.627749 0.258209 
     length 2.5437 
     axis 0 0 0  XYZ
  end
  begin
     id 2 
     name lfemur
     direction 0.34202 -0.939693 0  
     length 6.7391  
     axis 0 0 20  XYZ
    dof rx ry rz
    limits (-160.0 20.0)
           (-70.0 70.0)
           (-60.0 70.0)
  end
  begin
     id 3 
     name ltibia
     direction 0.34202 -0.939693 0   
     length 7.21536   
     axis 0 0 20   XYZ
    dof rx
    limits (-10.0 170.0)
  end
  begin
     id 4 
     name lfoot
     direction 0.0489572 -0.134509 0.989702   
     length 1.61313   
     axis -90 7.62852e-016 20   XYZ
    dof rx rz
    limits (-45.0 90.0)
           (-70.0 20.0)
  end
  begin
     id 5 
     name ltoes
     direction 1.53451e-011 -4.21692e-011 1   
     length 0.823104   
     axis -90 7.62852e-016 20   XYZ
    dof rx
    limits (-90.0 20.0)
  end
  begin
     id 6 
     name rhipjoint
     direction -0.746398 -0.615468 0.253157   
     length 2.59446  
     axis 0 0 0  XYZ 
  end
  begin
     id 7 
     name rfemur
     direction -0.34202 -0.939693 0   
     length 6.7075   
     axis 0 0 -20   XYZ
    dof rx ry rz
    limits (-160.0 20.0)
           (-70.0 70.0)
           (-70.0 60.0)
  end
  begin
     id 8 
     name rtibia
     direction -0.34202 -0.939693 0   
     length 7.27262   
     axis 0 0 -20   XYZ
    dof rx
    limits (-10.0 170.0)
 end
 begin
     id 9 
     name rfoot
     direction -0.0455203 -0.125066 0.991104   
     length 1.91095  
     axis -90 -7.62852e-016 -20   XYZ
    dof rx rz
    limits (-45.0 90.0)
           (-20.0 70.0)
  end
  begin
     id 10 
     name rtoes
     direction -1.53601e-011 -4.21913e-011 1   
     length 0.969037   
     axis -90 -7.62852e-016 -20   XYZ
    dof rx
    limits (-90.0 20.0)
  end
  begin
     id 11 
     name lowerback
     direction 0.0181546 0.999122 -0.0377542   
     length 1.99916   
     axis 0 0 0   XYZ
    dof rx ry rz
    limits (-20.0 45.0)
           (-30.0 30.0)
           (-30.0 30.0)
  end
  begin
     id 12 
     name upperback
     direction 0.0203486 0.99589 0.0882534   
     length 1.951   
     axis 0 0 0   XYZ
    dof rx ry rz
    limits (-20.0 45.0)
           (-30.0 30.0)
           (-30.0 30.0)
  end
  begin
     id 13 
     name thorax
     direction 0.0131685 0.994241 0.106355   
     length 1.97461   
     axis 0 0 0   XYZ
    dof rx ry rz
    limits (-20.0 45.0)
           (-30.0 30.0)
           (-30.0 30.0)
  end
  begin
     id 14 
     name lowerneck
     direction -0.0281395 0.999325 0.023617   
     length 1.7959   
     axis 0 0 0   XYZ
    dof rx ry rz
    limits (-20.0 45.0)
           (-30.0 30.0)
           (-30.0 30.0)
  end
  begin
     id 15 
     name upperneck
     direction 0.0288721 0.991984 -0.123019   
     length 1.79917   
     axis 0 0 0   XYZ
    dof rx ry rz
    limits (-20.0 45.0)
           (-30.0 30.0)
           (-30.0 30.0)
  end
  begin
     id 16
     name head
     direction 0.0133797 0.998944 -0.0439492  
     length 1.80902  
     axis 0 0 0   XYZ
    dof rx ry rz
    limits (-20.0 45.0)
           (-30.0 30.0)
           (-30.0 30.0)
  end
  begin
     id 17 
     name lclavicle
     direction 0.919195 0.377107 0.113449  
     length 3.17815  
     axis 0 0 0   XYZ
    dof ry rz
    limits (-20.0 10.0)
           (0.0 20.0)
  end
  begin
     id 18 
     name lhumerus
     direction 1 -4.48959e-011 2.13129e-027   
     length 4.84137   
     axis 180 -30 -90   XYZ
    dof rx ry rz
    limits (-60.0 90.0)
           (-90.0 90.0)
           (-90.0 90.0)
  end
  begin
     id 19
     name lradius
     direction 1 -4.48957e-011 -6.30627e-028   
     length 3.2452   
     axis 180 -30 -90   XYZ
    dof rx
    limits (-10.0 170.0)
  end
  begin
     id 20
     name lwrist
     direction 1 -4.4901e-011 9.13299e-027   
     length 1.6226   
     axis -6.84618e-015 90 90   XYZ
    dof ry
    limits (-180.0 0.0)
 end
  begin
     id 21 
     name lhand
     direction 1 -4.48816e-011 1.82293e-026   
     length 0.521221   
     axis -1.16502e-014 90 90   XYZ
    dof rx rz
    limits (-90.0 90.0)
           (-45.0 45.0)
  end
  begin
     id 22 
     name lfingers
     direction 1 -4.49108e-011 3.65687e-026   
     length 0.420221   
     axis -2.33008e-014 90 90   XYZ
    dof rx
    limits (0.0 90.0)
  end
  begin
     id 23
     name lthumb
     direction 0.707107 -6.34943e-011 0.707107   
     length 0.603356   
     axis -90 45 5.69224e-014   XYZ
    dof rx rz
    limits (-45.0 45.0)
           (-45.0 45.0)
  end
  begin
     id 24 
     name rclavicle
     direction -0.90847 0.38596 0.160368   
     length 3.12973  
     axis 0 0 0   XYZ 
    dof ry rz
    limits (-10.0 20.0)
           (-20.0 0.0)
  end
  begin
     id 25 
     name rhumerus
     direction -1 -4.48974e-011 4.47268e-028  
     length 4.72284   
     axis 180 30 90   XYZ
    dof rx ry rz
    limits (-90.0 60.0)
           (-90.0 90.0)
           (-90.0 90.0)
  end
  begin
     id 26 
     name rradius
     direction -1 -4.48969e-011 3.43203e-027   
     length 3.23459   
     axis 180 30 90   XYZ
    dof rx
    limits (-10.0 170.0)
  end
  begin
     id 27 
     name rwrist
     direction -1 -4.48969e-011 9.12911e-027   
     length 1.6173   
     axis -6.84618e-015 -90 -90   XYZ
    dof ry
    limits (-180.0 0.0)
  end
  begin
     id 28
     name rhand
     direction -1 -4.49194e-011 1.83006e-026   
     length 0.307416   
     axis -1.16502e-014 -90 -90   XYZ
    dof rx rz
    limits (-90.0 90.0)
           (-45.0 45.0)
  end
  begin
     id 29
     name rfingers
     direction -1 -4.48423e-011 3.63103e-026   
     length 0.247847   
     axis -2.33008e-014 -90 -90   XYZ
    dof rx
    limits (0.0 90.0)
  end
  begin
     id 30
     name rthumb
     direction -0.707107 -6.34802e-011 0.707107   
     length 0.35586   
     axis -90 -45 -5.69224e-014   XYZ
    dof rx rz
    limits (-45.0 45.0)
           (-45.0 45.0)
  end
:hierarchy
  begin
    root lhipjoint rhipjoint lowerback
    lhipjoint lfemur
    lfemur ltibia
    ltibia lfoot
    lfoot ltoes
    rhipjoint rfemur
    rfemur rtibia
    rtibia rfoot
    rfoot rtoes
    lowerback upperback
    upperback thorax
    thorax lowerneck lclavicle rclavicle
    lowerneck upperneck
    upperneck head
    lclavicle lhumerus
    lhumerus lradius
    lradius lwrist
    lwrist lhand lthumb
    lhand lfingers
    rclavicle rhumerus
    rhumerus rradius
    rradius rwrist
    rwrist rhand rthumb
    rhand rfingers
  end

#!OML:ASF H:\Terrain\Patient Classification 1\Animal1\Tuesday\Animal1.ASF
:FULLY-SPECIFIED
:DEGREES
84
root 19.3797 16.5191 -14.0943 10.7509 -34.3311 -0.629841
lowerback -6.53142 0.333118 -0.182051
upperback -6.72883 0.395072 1.37201
thorax -3.30576 0.203014 1.53447
lowerneck -4.73282 -0.764619 -4.7691
upperneck 19.2919 -2.0495 7.53351
head 6.74534 -0.792116 3.07956
rclavicle 2.71341e-014 4.77083e-015
rhumerus -45.4999 21.4461 -97.802
rradius 55.6001
rwrist -45.4588
rhand -21.0613 19.4075
rfingers 7.12502
rthumb 5.31516 -10.5058
lclavicle 2.71341e-014 4.77083e-015
lhumerus -47.0744 -21.4577 108.013
lradius 74.1685
lwrist 17.5952
lhand 8.39349 50.3495
lfingers 7.12502
lthumb 33.6011 77.221
rfemur -21.7759 25.3002 14.478
rtibia 22.0182
rfoot -27.5114 -41.7237
rtoes 42.1375
lfemur -17.4266 -39.0781 -20.0015
ltibia 18.729
lfoot -34.412 42.0697
ltoes 40.9417
85
root 19.3756 16.5194 -14.0983 10.6366 -34.2025 -0.415092
lowerback -6.47259 0.256977 -0.343917
upperback -6.6802 0.300071 1.32235
thorax -3.28545 0.161216 1.57024
lowerneck -4.71092 -0.708951 -4.67955
upperneck 19.1568 -1.97254 7.52546
head 6.69228 -0.750173 3.06518
rclavicle 6.55989e-015 1.35174e-014
rhumerus -45.4422 21.6149 -97.9263
rradius 55.5986
rwrist -45.3711
rhand -20.8067 19.7999
rfingers 7.12502
rthumb 5.561 -10.1071
lclavicle 6.55989e-015 1.35174e-014
lhumerus -47.0187 -21.5212 107.972
lradius 74.1878
lwrist 17.5304
lhand 7.40135 50.1046
lfingers 7.12502
lthumb 32.6576 77.1764
rfemur -21.7188 25.3403 14.305
rtibia 21.973
rfoot -28.4317 -41.4033
rtoes 43.3307
lfemur -17.4512 -38.8202 -20.197
ltibia 18.7768
lfoot -33.837 41.9791
ltoes 40.7749
86
root 19.3706 16.5186 -14.1037 10.54 -34.1419 -0.389097
lowerback -6.32076 0.281759 -0.323432
upperback -6.58084 0.333646 1.25546
thorax -3.26582 0.176322 1.48993
lowerneck -4.71566 -0.697413 -4.44241
upperneck 18.9598 -1.94464 7.3927
head 6.62605 -0.730664 2.98067
rclavicle 8.97016e-015 4.77083e-015
rhumerus -45.2986 21.5668 -98.0085
rradius 55.6281
rwrist -45.2669
rhand -20.9108 19.7612
rfingers 7.12502
rthumb 5.46046 -10.1485
lclavicle 8.97016e-015 4.77083e-015
lhumerus -46.8451 -21.8206 107.894
lradius 74.1205
lwrist 17.5369
lhand 7.06274 50.095
lfingers 7.12502
lthumb 32.3354 77.2331
rfemur -21.5468 25.4014 14.3503
rtibia 21.8415
rfoot -28.5377 -41.2679
rtoes 43.4916
lfemur -17.3847 -38.3788 -20.3389
ltibia 18.9378
lfoot -33.2472 41.7263
ltoes 40.6371
87
root 19.3642 16.5189 -14.1056 10.7577 -34.1499 -0.802623
lowerback -6.26897 0.394047 0.0695465
upperback -6.51469 0.470716 1.27919
thorax -3.22557 0.229928 1.2983
lowerneck -4.67167 -0.684566 -4.32811
upperneck 18.7787 -1.92675 7.38566
head 6.55853 -0.716034 2.95767
rclavicle 4.93731e-014 -3.18055e-015
rhumerus -45.1943 21.4666 -98.0426
rradius 55.7053
rwrist -45.2372
rhand -20.9315 19.5944
rfingers 7.12502
rthumb 5.44052 -10.3157
lclavicle 4.93731e-014 -3.18055e-015
lhumerus -46.7865 -22.2422 107.954
lradius 74.0787
lwrist 17.5199
lhand 7.20146 50.149
lfingers 7.12502
lthumb 32.4674 77.2601
rfemur -21.4625 25.3566 14.7831
rtibia 21.705
rfoot -28.0538 -41.3493
rtoes 43.1044
lfemur -17.4412 -38.2967 -19.9653
ltibia 19.1133
lfoot -33.6301 41.5076
ltoes 40.9518
88
root 19.3575 16.5201 -14.1071 11.0815 -34.177 -1.20062
lowerback -6.33941 0.444429 0.432604
upperback -6.50301 0.524314 1.33114
thorax -3.17239 0.243154 1.15075
lowerneck -4.53432 -0.60052 -4.22106
upperneck 18.559 -1.81077 7.37943
head 6.45612 -0.657084 2.94245
rclavicle 3.87879e-014 -2.38542e-015
rhumerus -45.1294 21.6037 -98.164
rradius 55.7837
rwrist -45.2276
rhand -20.9491 19.6055
rfingers 7.12502
rthumb 5.42348 -10.3051
lclavicle 3.87879e-014 -2.38542e-015
lhumerus -46.6418 -22.4207 107.831
lradius 74.0308
lwrist 16.8004
lhand 8.94666 50.4355
lfingers 7.12502
lthumb 34.1266 77.1911
rfemur -21.5104 25.1829 15.1653
rtibia 21.5636
rfoot -26.822 -41.8103
rtoes 41.7689
lfemur -17.7005 -38.6939 -19.4382
ltibia 19.313
lfoot -34.4273 41.6626
ltoes 41.2207
89
root 19.3529 16.5212 -14.1086 11.2128 -34.1481 -1.21793
lowerback -6.36101 0.407035 0.450482
upperback -6.54588 0.473535 1.35216
thorax -3.2045 0.217138 1.16086
lowerneck -4.39983 -0.452229 -4.14424
upperneck 18.3849 -1.59612 7.32123
head 6.36285 -0.555994 2.92271
rclavicle -4.00551e-014 -3.57812e-015
rhumerus -45.1444 22.0066 -98.3514
rradius 55.8738
rwrist -45.242
rhand -21.0877 20.3685
rfingers 7.12502
rthumb 5.28967 -9.54549
lclavicle -4.00551e-014 -3.57812e-015
lhumerus -46.376 -22.1847 107.494
lradius 73.8363
lwrist 15.4144
lhand 12.176 50.6318
lfingers 7.12502
lthumb 37.1871 76.6476
rfemur -21.565 24.9368 15.1908
rtibia 21.4294
rfoot -26.286 -41.8788
rtoes 40.9942
lfemur -18.0268 -39.3046 -19.2106
ltibia 19.5285
lfoot -35.0222 42.0533
ltoes 41.349
